<svg width="300" height="189" viewBox="0 0 300 189" fill="none" xmlns="http://www.w3.org/2000/svg">
<path d="M80.3008 139.495C80.2138 139.408 72.8008 135.595 72.8008 135.595L80.3008 128.395C82.9348 129.276 86.6542 130.247 89.5852 130.247C104.174 130.247 116.001 118.419 116.001 103.831C116.001 100.992 115.329 97.3575 114.501 94.7949L122.001 87.2949C122.001 87.2949 124.101 93.5949 124.401 93.8949C124.701 94.1949 133.323 95.9175 133.401 95.9949C133.478 96.0717 133.482 107.914 133.401 107.995C133.32 108.076 124.527 110.142 124.401 110.395C124.274 110.648 119.601 121.795 119.601 122.095C119.601 122.395 124.401 129.595 124.401 129.895C124.401 130.195 115.532 138.595 115.401 138.595C115.27 138.595 108.201 134.095 107.901 134.095C107.601 134.095 96.268 139.428 96.2008 139.495C96.1336 139.562 93.8848 147.811 93.8008 147.895C93.7168 147.979 82.204 147.998 82.1008 147.895C81.9976 147.791 80.3878 139.582 80.3008 139.495Z" fill="white" stroke="white" stroke-width="3"/>
<path d="M35.6999 143.795C35.7016 144.395 13.4999 166.295 12.8999 166.295C12.2999 166.295 8.99844 162.9 8.99844 162.9C4.79952 158.7 0.298761 164.099 3.89943 167.7L20.9047 184.8C24.7094 188.604 29.6036 183.299 26.0047 179.7C26.0047 179.7 22.1999 176.195 22.1999 175.895C22.1999 175.595 45.0098 153.015 45.3057 152.906C45.6016 152.795 54.2933 162.394 54.2933 162.394C58.5878 166.79 63.2935 161.194 59.6995 157.5C59.6995 157.5 54.0016 151.895 54.0057 151.406C54.0093 150.975 74.6143 130.836 79.6165 125.953C69.2623 122.49 61.8007 112.714 61.8007 101.195C61.8007 86.7803 73.4857 75.0953 87.9007 75.0953C99.5101 75.0953 109.35 82.6751 112.739 93.1565L134.401 71.4953C136.801 69.0953 135.001 64.2953 136.201 61.8953C137.401 59.4952 144.901 52.5952 146.401 50.7952C147.901 48.9952 147.226 44.437 147.226 44.437C147.226 44.437 188.077 5.4263 188.443 4.05646C188.701 3.09517 188.443 2.08076 187.2 2.49517C186.346 2.77953 146.698 42.6952 146.1 42.9952C145.502 43.2952 141.48 41.5771 138.902 43.2952C136.323 45.0132 129.302 53.4952 126.902 53.7952C124.502 54.0952 120.302 53.4418 117.602 55.8952C114.902 58.3485 105.602 67.5953 105.3 67.5953C104.998 67.5953 97.2019 64.5953 96.9001 64.2953C96.5983 63.9953 94.8019 56.1952 94.5001 55.8952C94.1983 55.5952 82.7983 55.5952 82.5001 55.8952C82.2019 56.1952 80.3983 63.6953 80.1001 63.9953C79.8019 64.2953 68.7013 69.3953 68.4001 69.3953C68.0983 69.3953 61.1983 64.8953 60.9001 64.8953C60.6013 64.8953 51.8983 73.2953 51.8999 73.5953C51.9016 73.8953 56.3983 80.7953 56.3999 81.0953C56.4016 81.3953 51.5983 92.7953 51.2999 93.0953C51.0016 93.3953 43.1983 94.8953 42.8999 95.1953C42.6016 95.4953 42.5983 107.195 42.8999 107.495C43.2016 107.795 51.0745 109.595 51.2999 109.895C51.5254 110.195 54.5983 117.095 54.5999 117.695C54.6016 118.295 37.8016 135.095 37.1999 135.095C36.5982 135.095 31.1995 129.095 31.1995 129.095C27.5042 125.399 22.4042 130.499 26.0995 134.195C26.0995 134.195 35.6983 143.195 35.6999 143.795Z" stroke="white" stroke-width="3"/>
<path d="M161.402 122.796H167.702L154.802 102.696L167.102 83.4956H160.802L151.802 97.2956L142.802 83.4956H136.502L148.802 102.696L135.602 122.796H141.902L151.802 107.796L161.402 122.796Z" fill="white"/>
<path d="M198.602 122.796H176.102V83.4956H181.502V118.296H198.602V122.796Z" fill="white"/>
<path d="M207.9 118.296V122.796H231.6V118.296H222.6V87.6956H231.6V83.4956H208.2V87.6956H217.2V118.296H207.9Z" fill="white"/>
<path d="M248.701 122.796H243.301V83.4956H265.501V87.6956H248.701V100.896H264.601V105.096H248.701V122.796Z" fill="white"/>
<path d="M277.201 83.4956V122.796H299.701V118.296H282.601V104.196H299.101V99.9956H282.601V87.6956H299.701V83.4956H277.201Z" fill="white"/>
</svg>
