<svg width="200" height="126" viewBox="0 0 200 126" fill="none" xmlns="http://www.w3.org/2000/svg">
<g clip-path="url(#clip0_1126_83)">
<path d="M54.2012 93.6636C54.1432 93.6056 49.2012 91.0636 49.2012 91.0636L54.2012 86.2636C55.9572 86.8508 58.4368 87.498 60.3908 87.498C70.1168 87.498 78.0012 79.6132 78.0012 69.8876C78.0012 67.9948 77.5536 65.572 77.0012 63.8636L82.0012 58.8636C82.0012 58.8636 83.4012 63.0636 83.6012 63.2636C83.8012 63.4636 89.5496 64.612 89.6012 64.6636C89.6524 64.7148 89.6552 72.6096 89.6012 72.6636C89.5472 72.7176 83.6856 74.0952 83.6012 74.2636C83.5168 74.432 80.4012 81.8636 80.4012 82.0636C80.4012 82.2636 83.6012 87.0636 83.6012 87.2636C83.6012 87.4636 77.6884 93.0636 77.6012 93.0636C77.514 93.0636 72.8012 90.0636 72.6012 90.0636C72.4012 90.0636 64.846 93.6188 64.8012 93.6636C64.7564 93.7084 63.2572 99.2076 63.2012 99.2636C63.1452 99.3196 55.47 99.3324 55.4012 99.2636C55.3324 99.1944 54.2592 93.7216 54.2012 93.6636Z" fill="#8CBE22" stroke="#8CBE22" stroke-width="3"/>
<path d="M23.8006 95.8636C23.8017 96.2636 9.00057 110.864 8.60057 110.864C8.20057 110.864 5.99961 108.6 5.99961 108.6C3.20033 105.8 0.199825 109.399 2.60027 111.8L13.9371 123.2C16.4736 125.736 19.7364 122.199 17.3371 119.8C17.3371 119.8 14.8006 117.464 14.8006 117.264C14.8006 117.064 30.0072 102.01 30.2044 101.937C30.4017 101.864 36.1962 108.263 36.1962 108.263C39.0592 111.193 42.1963 107.463 39.8003 105C39.8003 105 36.0017 101.264 36.0044 100.937C36.0068 100.65 49.7435 87.224 53.0783 83.9688C46.1755 81.66 41.2011 75.1428 41.2011 67.4636C41.2011 57.8536 48.9911 50.0636 58.6011 50.0636C66.3407 50.0636 72.9003 55.1168 75.1599 62.1044L89.6011 47.6636C91.2011 46.0636 90.0011 42.8636 90.8011 41.2636C91.6011 39.6635 96.6011 35.0635 97.6011 33.8635C98.6011 32.6635 98.1515 29.6248 98.1515 29.6248C98.1515 29.6248 125.386 3.6176 125.63 2.70437C125.801 2.06351 125.63 1.38724 124.801 1.66351C124.232 1.85308 97.7995 28.4635 97.4007 28.6635C97.0019 28.8635 94.3207 27.7182 92.6019 28.8635C90.8827 30.0089 86.2019 35.6635 84.6019 35.8635C83.0019 36.0635 80.2019 35.628 78.4019 37.2635C76.6019 38.8991 70.4019 45.0636 70.2007 45.0636C69.9995 45.0636 64.8019 43.0636 64.6007 42.8636C64.3995 42.6636 63.2019 37.4635 63.0007 37.2635C62.7995 37.0635 55.1995 37.0635 55.0007 37.2635C54.8019 37.4635 53.5995 42.4636 53.4007 42.6636C53.2019 42.8636 45.8015 46.2636 45.6007 46.2636C45.3995 46.2636 40.7995 43.2636 40.6007 43.2636C40.4015 43.2636 34.5995 48.8636 34.6006 49.0636C34.6017 49.2636 37.5995 53.8636 37.6006 54.0636C37.6017 54.2636 34.3995 61.8636 34.2006 62.0636C34.0017 62.2636 28.7995 63.2636 28.6006 63.4636C28.4017 63.6636 28.3995 71.4636 28.6006 71.6636C28.8017 71.8636 34.0503 73.0636 34.2006 73.2636C34.3509 73.4636 36.3995 78.0636 36.4006 78.4636C36.4017 78.8636 25.2017 90.0636 24.8006 90.0636C24.3994 90.0636 20.8003 86.0632 20.8003 86.0632C18.3368 83.5996 14.9368 86.9996 17.4003 89.4632C17.4003 89.4632 23.7995 95.4636 23.8006 95.8636Z" stroke="#EC661A" stroke-width="3"/>
<path d="M107.6 81.8636H111.8L103.2 68.4636L111.4 55.6636H107.2L101.2 64.8636L95.2004 55.6636H91.0004L99.2004 68.4636L90.4004 81.8636H94.6004L101.2 71.8636L107.6 81.8636Z" fill="#575656"/>
<path d="M132.4 81.8636H117.4V55.6636H121V78.8636H132.4V81.8636Z" fill="#575656"/>
<path d="M138.602 78.8636V81.8636H154.402V78.8636H148.402V58.4636H154.402V55.6636H138.802V58.4636H144.802V78.8636H138.602Z" fill="#575656"/>
<path d="M165.801 81.8636H162.201V55.6636H177.001V58.4636H165.801V67.2636H176.401V70.0636H165.801V81.8636Z" fill="#575656"/>
<path d="M184.801 55.6636V81.8636H199.801V78.8636H188.401V69.4636H199.401V66.6636H188.401V58.4636H199.801V55.6636H184.801Z" fill="#575656"/>
</g>
<defs>
<clipPath id="clip0_1126_83">
<rect width="200" height="125.6" fill="white"/>
</clipPath>
</defs>
</svg>
